<?xml version="1.0" encoding="UTF-8"?>
<svg xmlns="http://www.w3.org/2000/svg" width="382" height="85">
	<path d="M195.1 78H24.3L21 73.2a92.7 92.7 0 0 0-7.3-9l-4-4.2 43.3.5v.8c0 .4.7.7 1.5.7H56v-2h7.8l.4 1 .3.8 4 .2h7l3-.2-2.5-1V57l-11.5-.3 13.1-1.2 3.5-3.5H87l2.4 8-3.8 3H94v-2h5.9l1.2 2h10.1l-2.4-3h7.6l-3.7 2.7 12.2 1.4 2-2c1.2-1.2 2.1-2.5 2.1-3.1v-1h-5v-1.8l4.8-1.2 6.2 1.3V58h-1.5c-.8 0-1.5.2-1.5.5s.5 1.6 1.2 3l1.1 2.5h10.8l.6-1.6c.3-.8.6-4.5.7-8.2l.1-6.7 2-1.5h10.2l1.3-7.8 1.6-.6c.9-.3 2.9-.6 4.4-.6h3l2 3.9V47l13-2.3V42l-4-1.2V37h2v3h.8c.4 0 1.5-.7 2.5-1.4l1.8-1.4-1.6-.6c-.8-.3-1.5-1-1.5-1.5v-1l3.8 1 1.5-2.4-4.8-3.7h1.5c.8 0 2.3.7 3.3 1.4l1.7 1.3v1.5c0 .8-.6 2-1.2 2.7l-1.3 1.2 3.5 2.6-1.2 6.3h2.2v-8h1.6l.3 4.2c.1 2.3.4 4.4.6 4.6s1.2-.1 2.3-.7l2-1-1-4.3 3.7.8-.6 3.4h2.1v-6.7c0-3.8.3-9.2.6-12l.7-5.3h-3v-3l1.5-.5c.7-.3 1.7-.3 2.1 0l.8.4-.1-3.7-.1-3.7h2l-.2 7.2 4.2-1-4 3.1-.7 24.8 2.7 1.2c1.4.7 3.2 1.2 4 1.2h1.5v11.1l3.5-.6.7-4c.4-2.2.7-6.3.7-9.1l.1-5.2 1.6-.6c.9-.3 4.9-.6 9-.6h7.3l4.7 1.8L246 46l2.5 6.1h12l.3-13.2.3-13.3 2.7-5.4-2.3-1 2.6-.1-1.5-1.5c-.8-.8-2-1.5-2.5-1.5H259v-2h11v2h-5.1l.6 3.3c.4 1.7.9 6.7 1.2 11 .3 4.2.5 7.7.7 7.7s1.7-1 2.8-2.2l8.8-5.5-9.3 6.8-2.7 3.7.6 9.9c.3 5.4.7 10.8 1 12l.4 2.3h4V53h8l.2 5.5 1.2-7.7 1.2-7.8 2-1.4a7 7 0 0 1 3.1-1.6c.7 0 2.3.5 3.7 1.2l2.6 1.1.6 3.6c.3 2 1 4.6 1.6 5.9l1.1 2.2h7.7v-4h12v4l13.5.5.3 4.7.3 4.7h20.7c11.3.1 20.8.4 21 .6.3.3-.2 1.3-1.1 2.3-1 1-1.7 2.3-1.7 2.8s-1.1 2.6-2.5 4.7l-2.6 3.7z"/>
</svg>